<?xml version="1.0" encoding="UTF-8" standalone="no"?>
<svg
   width="24"
   height="24"
   viewBox="0 0 24 24"
   fill="none"
   version="1.1"
   id="svg5"
   sodipodi:docname="calculator_green.svg"
   inkscape:export-filename="calculator.png"
   inkscape:export-xdpi="96"
   inkscape:export-ydpi="96"
   inkscape:version="1.4 (86a8ad7, 2024-10-11)"
   xmlns:inkscape="http://www.inkscape.org/namespaces/inkscape"
   xmlns:sodipodi="http://sodipodi.sourceforge.net/DTD/sodipodi-0.dtd"
   xmlns="http://www.w3.org/2000/svg"
   xmlns:svg="http://www.w3.org/2000/svg">
  <defs
     id="defs5" />
  <sodipodi:namedview
     id="namedview5"
     pagecolor="#505050"
     bordercolor="#eeeeee"
     borderopacity="1"
     inkscape:showpageshadow="0"
     inkscape:pageopacity="0"
     inkscape:pagecheckerboard="0"
     inkscape:deskcolor="#d1d1d1"
     inkscape:export-bgcolor="#ffffff0b"
     inkscape:zoom="17.270833"
     inkscape:cx="11.464415"
     inkscape:cy="17.978287"
     inkscape:window-width="1920"
     inkscape:window-height="1009"
     inkscape:window-x="-8"
     inkscape:window-y="-8"
     inkscape:window-maximized="1"
     inkscape:current-layer="svg5" />
  <path
     d="M 2,6 C 2,3.79086 3.79086,2 6,2 h 12 c 2.2091,0 4,1.79086 4,4 v 5 H 2 Z"
     stroke="#000000"
     stroke-width="2"
     stroke-linecap="round"
     stroke-linejoin="round"
     id="path1"
     sodipodi:nodetypes="ssssccs"
     style="stroke:#aade87" />
  <path
     d="m 18.5,16.5 h -3"
     stroke="#000000"
     stroke-width="2"
     stroke-linecap="round"
     id="path2"
     sodipodi:nodetypes="cc"
     style="fill:#8dd35f;stroke:#aade87" />
  <path
     d="m 12,11 h 10 v 7 c 0,2.2091 -1.7909,4 -4,4 h -6 z"
     stroke="#000000"
     stroke-width="2"
     stroke-linecap="round"
     stroke-linejoin="round"
     id="path3"
     sodipodi:nodetypes="ccsscc"
     style="stroke:#aade87" />
  <path
     d="M 12,11 H 2 v 7 c 0,2.2091 1.79086,4 4,4 h 6 z"
     stroke="#000000"
     stroke-width="2"
     stroke-linecap="round"
     stroke-linejoin="round"
     id="path4"
     sodipodi:nodetypes="ccsscc"
     style="stroke:#aade87" />
  <path
     d="M 5.5,18 7,16.5 m 0,0 L 8.49999,15 M 7,16.5 8.5,18 M 7,16.5 5.50001,15"
     stroke="#000000"
     stroke-width="2"
     stroke-linecap="round"
     id="path5"
     sodipodi:nodetypes="cccccccc"
     style="stroke:#aade87" />
</svg>
